<?xml version="1.0" encoding="utf-8"?>
<!-- Generator: Adobe Illustrator 24.2.1, SVG Export Plug-In . SVG Version: 6.00 Build 0)  -->
<svg version="1.1" id="Capa_1" xmlns="http://www.w3.org/2000/svg" xmlns:xlink="http://www.w3.org/1999/xlink" x="0px" y="0px"
	 viewBox="0 0 120 120" style="enable-background:new 0 0 120 120;" xml:space="preserve">
<style type="text/css">
	.st0{fill:none;}
	.st1{fill:#2088E2;}
</style>
<line class="st0" x1="-59.7" y1="508.7" x2="-59.7" y2="-388.3"/>
<line class="st0" x1="-59.7" y1="508.7" x2="-59.7" y2="-388.3"/>
<line class="st0" x1="-59.7" y1="-388.3" x2="-59.7" y2="508.7"/>
<g>
	<path class="st1" d="M104.1,56.8c4.7-1,8.3-5.2,8.3-10.3c0-5.8-4.7-10.5-10.5-10.5c-4.3,0-8,2.6-9.6,6.3V15h2.9V8.8
		c0-3.7-3-6.7-6.7-6.7H71.5c-3.7,0-6.7,3-6.7,6.7V15h2.5v30.3c0,3.6-2.1,7-5.5,8.4c-4.2,1.8-7.8,4.3-10.5,7.5
		c-2.8-1.4-5.6-2.7-7.9-3.7c-8.1-3.5-16-6-22.3-7.2C13.8,49,9.7,49.6,8.6,52.2c-2.3,5.4,11.5,13.8,22.4,19
		c-14.5,0.7-25.5,3.6-25.9,7h0v30.1c0,9.1,27.3,9.6,32.7,9.6c4.9,0,26.9-0.4,31.8-6.9c2.9,0.2,6,0.3,9.3,0.3c0.4,0,0.9,0,1.3,0
		c10.9,0,20.7,0,27.1-7.3c4.8-5.6,7.7-17.2,7.7-25.5C114.9,68.6,110.8,61.4,104.1,56.8z M101.9,41.6c2.7,0,4.9,2.2,4.9,4.9
		c0,2.7-2.2,4.9-4.9,4.9c-2.7,0-4.9-2.2-4.9-4.9C97,43.8,99.2,41.6,101.9,41.6z M64,58.8c5.4-2.3,8.9-7.7,8.9-13.6V15h13.6v30
		c0,6,3.7,11.5,9.3,13.8c2.5,1,4.7,2.3,6.5,3.9H57.8C59.6,61.1,61.6,59.9,64,58.8z M64.9,107.9c-1.6,1.6-11,4.3-27.1,4.3
		s-25.4-2.8-27.1-4.3V82.5c0.3,0.1,0.6,0.2,0.9,0.3c0.3,0.1,0.6,0.2,1,0.3c3,0.8,6.7,1.5,11,2s9.1,0.7,14.1,0.7
		c2.3,0,4.4-0.1,6.6-0.1c1.1,0,2.1-0.1,3.1-0.2c1-0.1,2-0.2,3-0.2c0.5-0.1,1.1-0.1,1.6-0.2c1.8-0.2,3.5-0.4,5-0.7
		c0.1,0,0.3,0,0.4-0.1c2-0.3,3.8-0.7,5.4-1.2c0.3-0.1,0.7-0.2,1-0.3c0.4-0.1,0.7-0.2,1-0.3V107.9z M59.3,78
		c-6.1-1.1-13.8-3.6-21.7-7C19,63.1,10.4,55.2,11.2,53.3c0.1-0.3,1.1-0.8,3.5-0.8c1.4,0,3.2,0.2,5.7,0.6c6.1,1.1,13.8,3.6,21.7,7
		C60.8,68,69.4,76,68.6,77.8C68.4,78.3,66.3,79.3,59.3,78z M102.9,100.3c-4.5,5.1-11.6,5.4-22.8,5.4l-0.7,0l-0.7,0
		c-3.1,0-5.8,0-8.3-0.2V79.9c0.3-0.3,0.5-0.6,0.7-1c1.6-3.8-4.6-9-12.2-13.5h46.2c2.7,3.5,4.1,7.9,4.1,13.1
		C109.3,86.4,106.4,96.3,102.9,100.3z"/>
	<ellipse transform="matrix(0.7071 -0.7071 0.7071 0.7071 -58.9285 55.5645)" class="st1" cx="37.6" cy="98.9" rx="9.6" ry="9.6"/>
</g>
</svg>
