<?xml version="1.0" encoding="utf-8"?>
<!-- Generator: Adobe Illustrator 24.2.1, SVG Export Plug-In . SVG Version: 6.00 Build 0)  -->
<svg version="1.1" id="Capa_1" xmlns="http://www.w3.org/2000/svg" xmlns:xlink="http://www.w3.org/1999/xlink" x="0px" y="0px"
	 viewBox="0 0 120 120" style="enable-background:new 0 0 120 120;" xml:space="preserve">
<style type="text/css">
	.st0{fill:none;}
	.st1{fill:#2088E2;}
</style>
<line class="st0" x1="-59.7" y1="508.7" x2="-59.7" y2="-388.3"/>
<line class="st0" x1="-59.7" y1="508.7" x2="-59.7" y2="-388.3"/>
<line class="st0" x1="-59.7" y1="-388.3" x2="-59.7" y2="508.7"/>
<path class="st1" d="M89.4,27.6L79.2,13c-0.2-0.3-0.5-0.5-0.8-0.7h3.1V7.7c0-2-1.6-3.7-3.7-3.7H67.7c-2,0-3.7,1.6-3.7,3.7v4.6h2.6
	c-0.3,0.2-0.6,0.4-0.8,0.7L55.7,27.6C54,30.1,53.1,33,53.1,36v13h-15c-1.7,0-2.8,0.7-3.8,1.4l-0.4,0.3c-0.1,0-0.1,0.1-0.1,0.1
	l-3.5,2.7c-1.4,1.1-2.2,2.7-2.2,4.5v48.4c0,1.6,0.7,3.1,1.9,4.2l3.6,3.3c1.3,1.4,3,2.3,4.8,2.3h19.9c1.8,0,3.5-0.8,4.8-2.2l2.6-2.3
	h16.7c2.6,0,5.1-1.1,6.9-2.9c1.7-1.8,2.6-4.2,2.5-6.7l-1.3-28L92,63c0-0.1,0-0.3,0-0.4V36C92,33,91.1,30.1,89.4,27.6z M69.4,17.1
	h6.2L85,30.7c1.1,1.5,1.6,3.3,1.7,5.1H58.4c0-1.8,0.6-3.6,1.7-5.1L69.4,17.1z M58.4,38.5h28.3v20.2H68.5l0-0.9
	c0-1.8-0.9-3.6-2.4-4.6l-3.6-2.5c-0.1-0.1-0.2-0.1-0.2-0.2c-0.1-0.1-0.3-0.2-0.4-0.3c-0.8-0.5-2-1.2-3.5-1.2h0V38.5z M33.3,63.7
	h29.9l-0.1,37.5H33.3V63.7z M33.4,57.7l3.5-2.7l0.3-0.2c0.3-0.2,0.7-0.5,0.9-0.5h20.2c0.2,0.1,0.5,0.3,0.8,0.4
	c0.2,0.1,0.3,0.2,0.5,0.3l3.5,2.5c0.1,0.1,0.1,0.2,0.1,0.3l0,3.2H33.3v-3C33.3,57.8,33.4,57.7,33.4,57.7z M59.1,110.2
	c-0.3,0.3-0.6,0.5-0.9,0.5H38.3c-0.3,0-0.6-0.2-0.9-0.5c-0.1-0.1-0.2-0.2-0.3-0.3l-3.7-3.4c-0.1-0.1-0.1-0.2-0.1-0.3v-2.4h29.8
	l0,2.6c0,0.1,0,0.2-0.1,0.3l-3.7,3.2C59.2,110,59.1,110.1,59.1,110.2z M86.4,102.2c0,1-0.3,2-1,2.8c-0.8,0.8-1.9,1.3-3,1.3H68.5
	l0.1-44.8h18.1v1l-1.6,10.9c0,0.2,0,0.3,0,0.5L86.4,102.2z"/>
</svg>
