<?xml version="1.0" encoding="utf-8"?>
<!-- Generator: Adobe Illustrator 24.2.1, SVG Export Plug-In . SVG Version: 6.00 Build 0)  -->
<svg version="1.1" id="Capa_1" xmlns="http://www.w3.org/2000/svg" xmlns:xlink="http://www.w3.org/1999/xlink" x="0px" y="0px"
	 viewBox="0 0 120 120" style="enable-background:new 0 0 120 120;" xml:space="preserve">
<style type="text/css">
	.st0{fill:none;}
	.st1{fill:#2088E2;}
</style>
<line class="st0" x1="-59.7" y1="508.7" x2="-59.7" y2="-388.3"/>
<line class="st0" x1="-59.7" y1="508.7" x2="-59.7" y2="-388.3"/>
<line class="st0" x1="-59.7" y1="-388.3" x2="-59.7" y2="508.7"/>
<g>
	<path class="st1" d="M76.8,13.4L65.3,3.9c-1.5-1.3-3.6-1.6-5.4-0.8c-1.8,0.8-3,2.5-3.1,4.5l-0.3,7.5c-9.2,2.1-16.4,5.8-20.8,10.4
		l-13-3l-0.2,0c-1.6-0.2-3.1,0.5-4,1.8c-0.9,1.3-0.9,3-0.1,4.4l4.9,8.6l-4.3,8.9c-0.6,1.3-0.5,2.7,0.1,3.9
		C11,54.4,5.9,60.9,5.9,69.6c0,0,0,0.1,0,0.1H5.7v16.4h0c0.5,17.8,21.3,31.2,48.9,31.2c9.1,0,13.9-5.6,18.2-10.5
		c2.3-2.7,4.5-5.2,7.2-6.8c2.9-1.7,6.5-2.7,10.1-3.6c6.1-1.6,13-3.4,13.4-10.3l0-16.4h-0.1c0,0,0-0.1,0-0.1c0-7.2-3.5-12.9-9.4-17.2
		c7.7-3.4,13.4-7.9,16.5-11.1c2.6-2.7,3.9-5,3.8-6.9C114.1,28.3,96.7,14.8,76.8,13.4z M22.8,48.2c-0.1,0-0.1,0-0.2-0.1
		c-0.1-0.1,0-0.2,0-0.2l4.5-9.4c0.4-0.9,0.4-1.9-0.1-2.8l-5.2-9c0,0-0.1-0.1,0-0.2c0.1-0.1,0.1-0.1,0.2-0.1L33.1,29
		c-1.3,2.2-1.9,4.5-1.9,6.9c0.1,3.1,1.3,6,3.4,8.6l-3.1,1c-2.7,0.7-5.2,1.4-7.5,2.3L22.8,48.2z M88.9,91.8c-3.6,0.9-7.8,2-11.3,4.1
		c-3.4,2-5.9,4.9-8.3,7.8c-4.1,4.8-7.7,8.9-14.6,8.9c-25.2,0-44.2-11.6-44.2-27.1V83c7.7,10.7,24.6,17.5,44.2,17.5
		c13.1,0,16.6-12.6,25.3-17.8c5.9-3.5,13.8-4.1,18.8-6.5v9.3C98.8,88.9,95.7,90,88.9,91.8z M98.7,69.6c0,1.7-1.2,2.5-8.7,4.5
		c-4,1-8.5,2.2-12.4,4.5c-3.8,2.3-6.6,5.5-9.3,8.6c-4.6,5.3-7.7,8.5-13.6,8.5c-12.3,0-23.7-2.8-32-7.9c-9.9-6.1-12-13.3-12-18.2
		c0-6.7,3.9-12,11.7-15.9c7.9-3.9,19.1-6,32.4-6s24.4,2.1,32.4,6C94.8,57.6,98.7,62.9,98.7,69.6z M89.8,49.9
		C80.9,45.2,68.5,43,54.7,43c-5.2,0-10.3,0.3-15,1c-2.8-2.5-4.5-5.3-4.5-8.2c-0.1-7.3,9.4-14.1,23.7-17.1l1.5-0.3l0.5-10.5
		c0-0.7,0.5-1,0.7-1.1c0.1,0,0.3-0.1,0.5-0.1c0.2,0,0.5,0.1,0.8,0.3l12.4,10.3l0.6,0c20.1,1.2,34.3,14.7,34.5,17.3
		C110.3,36.7,102.3,45.1,89.8,49.9z"/>
	<path class="st1" d="M85.7,34.5c-0.1-3.3,1.2-6.4,3.5-8.8c0.8-0.8,0.8-2.1,0-2.8s-2.1-0.8-2.8,0c-3,3.2-4.7,7.3-4.6,11.7
		s1.9,8.5,5,11.5c0.4,0.4,0.9,0.6,1.4,0.6c0.5,0,1.1-0.2,1.4-0.6c0.8-0.8,0.8-2.1,0-2.8C87.1,40.9,85.8,37.8,85.7,34.5z"/>
	<path class="st1" d="M92.9,30.9c-1,1.1-1,2.8,0.1,3.8c1.1,1,2.8,1,3.8-0.1c1-1.1,1-2.8-0.1-3.8C95.7,29.8,94,29.8,92.9,30.9z"/>
	<path class="st1" d="M77.1,56.2c-0.2-0.6-0.8-1-1.4-0.8c-0.6,0.2-1,0.8-0.8,1.4l3.5,13.1c0.1,0.5,0.6,0.9,1.1,0.9
		c0.1,0,0.2,0,0.3,0c0.6-0.2,1-0.8,0.8-1.4L77.1,56.2z"/>
	<path class="st1" d="M24.7,61c-0.2-0.6-0.8-1-1.4-0.8c-0.6,0.2-1,0.8-0.8,1.4l5.5,20.5c0.1,0.5,0.6,0.9,1.1,0.9c0.1,0,0.2,0,0.3,0
		c0.6-0.2,1-0.8,0.8-1.4L24.7,61z"/>
	<path class="st1" d="M40.3,54.8c-0.2-0.6-0.8-1-1.4-0.8c-0.6,0.2-1,0.8-0.8,1.4l8.6,31.9c0.1,0.5,0.6,0.9,1.1,0.9
		c0.1,0,0.2,0,0.3,0c0.6-0.2,1-0.8,0.8-1.4L40.3,54.8z"/>
	<path class="st1" d="M58,54.6c-0.2-0.6-0.8-1-1.4-0.8c-0.6,0.2-1,0.8-0.8,1.4l7.2,26.8c0.1,0.5,0.6,0.9,1.1,0.9c0.1,0,0.2,0,0.3,0
		c0.6-0.2,1-0.8,0.8-1.4L58,54.6z"/>
</g>
</svg>
