<?xml version="1.0" encoding="utf-8"?>
<!-- Generator: Adobe Illustrator 24.2.1, SVG Export Plug-In . SVG Version: 6.00 Build 0)  -->
<svg version="1.1" id="Capa_1" xmlns="http://www.w3.org/2000/svg" xmlns:xlink="http://www.w3.org/1999/xlink" x="0px" y="0px"
	 viewBox="0 0 120 120" style="enable-background:new 0 0 120 120;" xml:space="preserve">
<style type="text/css">
	.st0{fill:none;}
	.st1{fill:#2088E2;}
</style>
<line class="st0" x1="-59.7" y1="508.7" x2="-59.7" y2="-388.3"/>
<line class="st0" x1="-59.7" y1="508.7" x2="-59.7" y2="-388.3"/>
<line class="st0" x1="-59.7" y1="-388.3" x2="-59.7" y2="508.7"/>
<path class="st1" d="M112,73l-16.4,4.4l-5.4-3.1l11.1-3c1.5-0.4,2.3-1.9,1.9-3.4c-0.4-1.5-1.9-2.3-3.4-1.9l-16.4,4.4l-8.6-5
	c0.7-1.8,1.1-3.8,1.1-5.8c0-1.8-0.3-3.6-0.9-5.2l8.4-4.9L99.9,54c0.2,0.1,0.5,0.1,0.7,0.1c1.2,0,2.3-0.8,2.6-2
	c0.4-1.5-0.5-3-1.9-3.4l-11.1-3l5.4-3.1L112,47c0.2,0.1,0.5,0.1,0.7,0.1c1.2,0,2.3-0.8,2.6-2c0.4-1.5-0.5-3-1.9-3.4l-11.1-3l7-4
	c1.3-0.8,1.8-2.4,1-3.7c-0.8-1.3-2.4-1.8-3.7-1l-7,4l3-11.1c0.4-1.5-0.5-3-1.9-3.4c-1.5-0.4-3,0.5-3.4,1.9l-4.4,16.4L87.5,41l3-11.1
	c0.4-1.5-0.5-3-1.9-3.4c-1.5-0.4-3,0.5-3.4,1.9l-4.4,16.4l-8.4,4.8c-2.4-2.9-5.8-4.9-9.7-5.5v-9.8l12-12c1.1-1.1,1.1-2.8,0-3.9
	s-2.8-1.1-3.9,0l-8.1,8.1v-6.2l12-12c1.1-1.1,1.1-2.8,0-3.9s-2.8-1.1-3.9,0l-8.1,8.1v-8c0-1.5-1.2-2.7-2.7-2.7s-2.7,1.2-2.7,2.7v8
	l-8.1-8.1c-1.1-1.1-2.8-1.1-3.9,0s-1.1,2.8,0,3.9l12,12v6.2l-8.1-8.1c-1.1-1.1-2.8-1.1-3.9,0s-1.1,2.8,0,3.9l12,12v9.9
	c-3.7,0.7-6.9,2.8-9.2,5.7l-8.9-5.1l-4.4-16.4c-0.4-1.5-1.9-2.3-3.4-1.9c-1.5,0.4-2.3,1.9-1.9,3.4l3,11.1l-5.4-3.1l-4.4-16.4
	c-0.4-1.5-1.9-2.3-3.4-1.9c-1.5,0.4-2.3,1.9-1.9,3.4l3,11.1l-7-4c-1.3-0.8-3-0.3-3.7,1c-0.8,1.3-0.3,3,1,3.7l7,4l-11.1,3
	c-1.5,0.4-2.3,1.9-1.9,3.4c0.3,1.2,1.4,2,2.6,2c0.2,0,0.5,0,0.7-0.1l16.4-4.4l5.4,3.1l-11.1,3c-1.5,0.4-2.3,1.9-1.9,3.4
	c0.3,1.2,1.4,2,2.6,2c0.2,0,0.5,0,0.7-0.1l16.4-4.4l9,5.2c-0.5,1.5-0.8,3.2-0.8,4.9c0,1.9,0.4,3.8,1,5.5l-9.2,5.3L20.1,66
	c-1.5-0.4-3,0.5-3.4,1.9c-0.4,1.5,0.5,3,1.9,3.4l11.1,3l-5.4,3.1L8,73c-1.5-0.4-3,0.5-3.4,1.9s0.5,3,1.9,3.4l11.1,3l-7,4
	c-1.3,0.8-1.8,2.4-1,3.7c0.5,0.9,1.4,1.4,2.4,1.4c0.5,0,0.9-0.1,1.4-0.4l7-4l-3,11.1c-0.4,1.5,0.5,3,1.9,3.4
	c0.2,0.1,0.5,0.1,0.7,0.1c1.2,0,2.3-0.8,2.6-2l4.4-16.4l5.4-3.1l-3,11.1c-0.4,1.5,0.5,3,1.9,3.4c0.2,0.1,0.5,0.1,0.7,0.1
	c1.2,0,2.3-0.8,2.6-2l4.4-16.4l9.3-5.4c2.2,2.6,5.3,4.5,8.8,5.2v10.6l-12,12c-1.1,1.1-1.1,2.8,0,3.9c0.5,0.5,1.2,0.8,1.9,0.8
	c0.7,0,1.4-0.3,1.9-0.8l8.1-8.1v6.2l-12,12c-1.1,1.1-1.1,2.8,0,3.9c0.5,0.5,1.2,0.8,1.9,0.8c0.7,0,1.4-0.3,1.9-0.8l8.1-8.1v8
	c0,1.5,1.2,2.7,2.7,2.7s2.7-1.2,2.7-2.7v-8l8.1,8.1c0.5,0.5,1.2,0.8,1.9,0.8s1.4-0.3,1.9-0.8c1.1-1.1,1.1-2.8,0-3.9l-12-12v-6.2
	l8.1,8.1c0.5,0.5,1.2,0.8,1.9,0.8s1.4-0.3,1.9-0.8c1.1-1.1,1.1-2.8,0-3.9l-12-12V75.1c3.6-0.6,6.9-2.4,9.2-5l8.8,5.1l4.4,16.4
	c0.3,1.2,1.4,2,2.6,2c0.2,0,0.5,0,0.7-0.1c1.5-0.4,2.3-1.9,1.9-3.4l-3-11.1l5.4,3.1l4.4,16.4c0.3,1.2,1.4,2,2.6,2
	c0.2,0,0.5,0,0.7-0.1c1.5-0.4,2.3-1.9,1.9-3.4l-3-11.1l7,4c0.4,0.2,0.9,0.4,1.4,0.4c0.9,0,1.9-0.5,2.4-1.4c0.8-1.3,0.3-3-1-3.7l-7-4
	l11.1-3c1.5-0.4,2.3-1.9,1.9-3.4S113.5,72.6,112,73z M60.4,69.8c-5.6,0-10.2-4.6-10.2-10.2s4.6-10.2,10.2-10.2S70.5,54,70.5,59.6
	S66,69.8,60.4,69.8z"/>
</svg>
