<?xml version="1.0" encoding="utf-8"?>
<!-- Generator: Adobe Illustrator 24.2.1, SVG Export Plug-In . SVG Version: 6.00 Build 0)  -->
<svg version="1.1" id="Capa_1" xmlns="http://www.w3.org/2000/svg" xmlns:xlink="http://www.w3.org/1999/xlink" x="0px" y="0px"
	 viewBox="0 0 120 120" style="enable-background:new 0 0 120 120;" xml:space="preserve">
<style type="text/css">
	.st0{fill:none;}
	.st1{fill:#2088E2;}
</style>
<line class="st0" x1="-59.7" y1="508.7" x2="-59.7" y2="-388.3"/>
<line class="st0" x1="-59.7" y1="508.7" x2="-59.7" y2="-388.3"/>
<line class="st0" x1="-59.7" y1="-388.3" x2="-59.7" y2="508.7"/>
<path class="st1" d="M64.1,20.7c3.4-5,8.4-7.9,15.6-9.1c2-0.3,3.3-2.2,3-4.2c-0.3-2-2.2-3.3-4.2-3c-11,1.8-18.4,7.1-22.8,16.3
	c-30.6,1.4-49.5,18-49.5,44.1c0,29,23.1,50.8,53.8,50.8c30.6,0,53.8-21.8,53.8-50.8C113.8,38.7,94.8,22,64.1,20.7z M60,110.1
	c-27.5,0-48.3-19.5-48.3-45.3c0-21.3,13.9-32.4,30.7-36.6l-7.8,7.1c-1.8,1.5-0.8,4.2,1.6,4.5l13.9,1.8c0.4,0.1,0.8,0.3,1,0.7
	l6.2,11.2c1.1,2,4.2,2,5.3,0l6.2-11.2c0.2-0.4,0.6-0.6,1-0.7l13.9-1.8c2.4-0.3,3.4-3,1.6-4.5L76.9,28c17.1,4.1,31.4,15.2,31.4,36.8
	C108.3,90.7,87.5,110.1,60,110.1z"/>
</svg>
