<?xml version="1.0" encoding="utf-8"?>
<!-- Generator: Adobe Illustrator 24.2.1, SVG Export Plug-In . SVG Version: 6.00 Build 0)  -->
<svg version="1.1" id="Capa_1" xmlns="http://www.w3.org/2000/svg" xmlns:xlink="http://www.w3.org/1999/xlink" x="0px" y="0px"
	 viewBox="0 0 120 120" style="enable-background:new 0 0 120 120;" xml:space="preserve">
<style type="text/css">
	.st0{fill:none;}
	.st1{fill:#2088E2;}
</style>
<line class="st0" x1="-59.7" y1="508.7" x2="-59.7" y2="-388.3"/>
<line class="st0" x1="-59.7" y1="508.7" x2="-59.7" y2="-388.3"/>
<line class="st0" x1="-59.7" y1="-388.3" x2="-59.7" y2="508.7"/>
<path class="st1" d="M114.1,28L108,14.8V9.9c0-4.2-4-7.4-9.1-7.4H65c-5.1,0-9.1,3.3-9.1,7.4v4.9L49.8,28c-1.1,2.3-1.6,4.8-1.6,7.2
	v36.9c-0.3-0.6-0.7-1.2-1-1.8c-4.1-6.7-8.8-10.3-13.7-10.3c-9.7,0-17.1,14.3-19.8,25.5H7c-1.5,0-2.7,1.2-2.7,2.7s1.2,2.7,2.7,2.7h2
	l2.9,16.1c1.1,6,6.3,10.3,12.3,10.3h19.5c4.4,0,8.3-2.3,10.6-5.8c2.2,3.5,6.1,5.8,10.6,5.8h19.5c3.2,0,6.1-1.2,8.4-3.2h14
	c5.1,0,9.1-3.3,9.1-7.4V35.2C115.7,32.8,115.2,30.3,114.1,28z M65,7.9h33.9c2.2,0,3.6,1.2,3.6,2v3.7H61.4V9.9
	C61.4,9.1,62.8,7.9,65,7.9z M61.1,16.6c0-0.1,0.1-0.2,0.1-0.2h41.5c0,0.1,0,0.2,0.1,0.2l6.4,13.7c0.3,0.6,0.5,1.2,0.6,1.8H54.1
	c0.2-0.6,0.4-1.2,0.6-1.8L61.1,16.6z M60.9,85.7c2.7-10,8.7-20.1,14.2-20.1c5.4,0,11.5,10.1,14.2,20.1H60.9z M33.5,65.6
	c4.6,0,11.2,8.4,14.2,20.1H19.3C22,75.7,28,65.6,33.5,65.6z M64.8,112.1c-3.9,0-7.1-3.2-7.1-7.1c0-1.5-1.2-2.7-2.7-2.7h-1.5
	c-1.5,0-2.7,1.2-2.7,2.7c0,3.9-3.2,7.1-7.1,7.1H24.2c-3.4,0-6.3-2.4-6.9-5.8l-2.7-15.1H94l-2.7,15.1c-0.6,3.4-3.5,5.8-6.9,5.8H64.8z
	 M110.2,106.9c0,0.8-1.4,2-3.6,2H96.2c0.2-0.5,0.3-1.1,0.4-1.6l2.9-16.1h1.8c1.5,0,2.7-1.2,2.7-2.7s-1.2-2.7-2.7-2.7h-6.5
	c-1.3-5.3-3.5-10.9-6.1-15.3c-4.1-6.7-8.8-10.3-13.7-10.3c-9.7,0-17.1,14.3-19.8,25.5h-1.7V35.2c0-0.1,0-0.3,0-0.4h56.6
	c0,0.1,0,0.3,0,0.4V106.9z"/>
</svg>
