<?xml version="1.0" encoding="utf-8"?>
<!-- Generator: Adobe Illustrator 24.2.1, SVG Export Plug-In . SVG Version: 6.00 Build 0)  -->
<svg version="1.1" id="Capa_1" xmlns="http://www.w3.org/2000/svg" xmlns:xlink="http://www.w3.org/1999/xlink" x="0px" y="0px"
	 viewBox="0 0 120 120" style="enable-background:new 0 0 120 120;" xml:space="preserve">
<style type="text/css">
	.st0{fill:none;}
	.st1{fill:#2088E2;}
</style>
<line class="st0" x1="-59.7" y1="508.7" x2="-59.7" y2="-388.3"/>
<line class="st0" x1="-59.7" y1="508.7" x2="-59.7" y2="-388.3"/>
<line class="st0" x1="-59.7" y1="-388.3" x2="-59.7" y2="508.7"/>
<path class="st1" d="M92.1,8.1h-4.7V6.9c0-2.4-1.9-4.3-4.3-4.3H37.7c-6.6,0-12.2,4.7-12.9,11c-0.4,3.5,0.7,7.1,3,9.7
	c2.3,2.6,5.6,4.1,9.1,4.2l0.1,6.3L36.9,37v72.1c0,4.6,3.7,8.3,8.3,8.3h38.6c4.3,0,7.8-3.2,8.3-7.5c0.8-8,1-31.5-7.4-44.1
	c-2.9-4.4-5.8-7.6-8.3-10.5c-5-5.7-8.9-10.2-10.8-20.3l0.1-0.9l0-6.6h4.4v11.5c0,1.9,1.5,3.4,3.4,3.4c1.9,0,3.4-1.5,3.4-3.4V27.5
	h6.2c2.4,0,4.3-1.9,4.3-4.3V18h4.7c1.7,0,3.1-0.9,3.1-2v-5.9C95.2,9,93.9,8.1,92.1,8.1z M72.3,58.9c2.5,2.9,5.1,5.9,7.9,10
	c6.3,9.5,7.6,29.4,6.5,40.5c-0.1,1.4-1.3,2.5-2.8,2.5H45.2c-1.6,0-2.8-1.3-2.8-2.8l0-72l0-0.4h17.9C62.6,47.7,67.1,52.9,72.3,58.9z
	 M81.9,22H65.4c-2.9,0-5.2,2.3-5.2,5.2v6.5l0,0.2H42.5l0-0.1l-0.1-6.6c0-2.9-2.3-5.1-5.3-5.2c-2,0-3.8-0.9-5.1-2.4
	c-1.3-1.5-1.9-3.4-1.7-5.4c0.4-3.4,3.7-6.1,7.4-6.1h44.2V22z"/>
</svg>
