<?xml version="1.0" encoding="utf-8"?>
<!-- Generator: Adobe Illustrator 24.2.1, SVG Export Plug-In . SVG Version: 6.00 Build 0)  -->
<svg version="1.1" id="Capa_1" xmlns="http://www.w3.org/2000/svg" xmlns:xlink="http://www.w3.org/1999/xlink" x="0px" y="0px"
	 viewBox="0 0 120 120" style="enable-background:new 0 0 120 120;" xml:space="preserve">
<style type="text/css">
	.st0{fill:none;}
	.st1{fill:#2088E2;}
</style>
<line class="st0" x1="-59.7" y1="508.7" x2="-59.7" y2="-388.3"/>
<line class="st0" x1="-59.7" y1="508.7" x2="-59.7" y2="-388.3"/>
<line class="st0" x1="-59.7" y1="-388.3" x2="-59.7" y2="508.7"/>
<path class="st1" d="M115.4,35.6c-0.6-1.7-2.2-3-4.1-3.3l-4.1-0.7c-1.1-4.7-4.3-16.9-8.6-22.2c-2.6-3.3-7.5-6.9-12.3-6.1
	c-2.3,0.3-5.3,1.8-7.2,6.5c-1.8,4.7-3.5,11.4-4.3,17.9c-1.1,0.5-2.1,1.4-2.6,2.6l-5.1,11.3L41.4,67.2l-11.3,5.1
	c-1.2,0.5-2.1,1.5-2.5,2.6c-6.4,0.9-13.1,2.5-17.9,4.3c-4.8,1.9-6.2,4.9-6.5,7.2c-0.7,4.9,2.8,9.7,6.1,12.3
	c5.3,4.2,17.6,7.5,22.2,8.6l0.7,4.1c0.3,1.9,1.5,3.5,3.2,4.1c2.9,1,5.7,1.4,8.4,1.4c9.5,0,17.1-5.4,20.6-8.5c3.6,3.2,9,3.4,15.3,0.3
	c4.9-2.4,10.6-6.7,16.3-12.5c5.8-5.8,10.1-11.4,12.5-16.3c3.1-6.3,3-11.7-0.3-15.3C112.4,59.9,120.1,48.8,115.4,35.6z M84.4,11.7
	c0.7-1.9,1.7-2.9,2.9-3.1c2-0.3,5,1.4,7.2,4.1c3.4,4.3,6.6,16,7.7,21L80,30.7c0-0.1,0.1-0.3,0.1-0.4C81,22.4,82.9,15.5,84.4,11.7z
	 M12.8,94.5c-2.7-2.2-4.5-5.2-4.1-7.2c0.2-1.2,1.2-2.2,3.1-2.9c3.8-1.5,10.6-3.4,18.6-4.3c0.2,0,0.4-0.1,0.5-0.1l2.8,22.2
	C28.5,101,17,97.9,12.8,94.5z M55,108.4c-5.9,3.2-11.7,3.9-17.3,2l-1-5.8c0,0,0,0,0,0l-3.5-27.6l10.4-4.7l19.6,30
	c-0.2,0.1-0.3,0.2-0.4,0.4C62.7,102.6,59.7,105.8,55,108.4z M103.8,77.4c-2.2,4.4-6.1,9.5-11.5,14.9c-5.3,5.3-10.5,9.3-14.9,11.5
	c-4.9,2.4-8.3,2.3-10.1-0.5c-0.2-0.3-0.5-0.6-0.8-0.8l-0.1-0.1L45.8,70.6l24.5-24.5l33.1,21.3C106,69.1,106.2,72.5,103.8,77.4z
	 M102.6,62.7c-0.2,0.2-0.3,0.4-0.5,0.6L72.1,43.9L77,33l33.4,4.7c1.8,5.6,1.2,11.4-2,17.3C105.8,59.7,102.6,62.7,102.6,62.7z"/>
</svg>
